<svg width="15" height="14" viewBox="0 0 15 14" fill="none" xmlns="http://www.w3.org/2000/svg">
<path fill-rule="evenodd" clip-rule="evenodd" d="M1.8204 0.362269C1.50405 0.0459104 0.991128 0.0459104 0.674769 0.362269C0.358411 0.678627 0.358411 1.19155 0.674769 1.5079L6.16686 7L0.674769 12.4921C0.35841 12.8085 0.35841 13.3214 0.674769 13.6377C0.991128 13.9541 1.50405 13.9541 1.8204 13.6377L7.3125 8.14563L12.8046 13.6377C13.121 13.9541 13.6339 13.9541 13.9502 13.6377C14.2666 13.3214 14.2666 12.8085 13.9502 12.4921L8.45813 7L13.9502 1.5079C14.2666 1.19155 14.2666 0.678627 13.9502 0.362269C13.6339 0.0459104 13.121 0.0459104 12.8046 0.362269L7.3125 5.85436L1.8204 0.362269Z" fill="#121E6C"/>
</svg>
