<svg width="48" height="48" viewBox="0 0 48 48" fill="none" xmlns="http://www.w3.org/2000/svg">
<circle cx="24" cy="24" r="24" fill="#FFC217"/>
<path fill-rule="evenodd" clip-rule="evenodd" d="M20.5993 28.2782L20 10.4476C20 8.54356 22.1429 7 24.047 7C25.9511 7 28.2125 8.54356 28.2125 10.4476L27.4946 28.2782C27.4946 30.1823 25.9511 31.7258 24.047 31.7258C22.1429 31.7258 20.5993 30.1823 20.5993 28.2782Z" fill="white"/>
<path fill-rule="evenodd" clip-rule="evenodd" d="M24.047 41.7933C23.8007 41.7933 23.5512 41.7703 23.3082 41.721C23.0688 41.6718 22.8288 41.5995 22.6026 41.5043C22.3757 41.4091 22.1557 41.2942 21.9521 41.1563C21.7453 41.0184 21.5515 40.8608 21.3775 40.6867C21.2038 40.5127 21.0459 40.319 20.908 40.1121C20.7701 39.9086 20.6555 39.6886 20.5603 39.462C20.465 39.2322 20.3925 38.9958 20.3435 38.7561C20.2972 38.5131 20.271 38.2636 20.271 38.0173C20.271 37.771 20.2972 37.5215 20.3435 37.2785C20.3925 37.0388 20.465 36.8024 20.5603 36.5726C20.6555 36.346 20.7701 36.126 20.908 35.9224C21.0459 35.7156 21.2038 35.5219 21.3775 35.3478C21.5515 35.1738 21.742 35.0162 21.9521 34.8783C22.1557 34.7404 22.3757 34.6255 22.6026 34.5303C22.8288 34.435 23.0688 34.3628 23.3082 34.3135C23.7974 34.2183 24.2968 34.2183 24.7858 34.3135C25.0254 34.3628 25.2619 34.435 25.4917 34.5303C25.7186 34.6255 25.9386 34.7404 26.1422 34.8783C26.349 35.0162 26.5427 35.1738 26.7168 35.3478C26.8905 35.5219 27.0484 35.7156 27.1863 35.9224C27.3239 36.126 27.4388 36.346 27.534 36.5726C27.6292 36.8024 27.7018 37.0388 27.7507 37.2785C27.797 37.5215 27.823 37.771 27.823 38.0173C27.823 39.0122 27.4194 39.9841 26.7168 40.6867C26.0138 41.3894 25.0419 41.7933 24.047 41.7933Z" fill="white"/>
</svg>
